<mxfile host="app.diagrams.net" agent="Mozilla/5.0 (Macintosh; Intel Mac OS X 10_15_7) AppleWebKit/537.36 (KHTML, like Gecko) Chrome/131.0.0.0 Safari/537.36" version="25.0.3" pages="6">
  <diagram id="kps9j1ukwh55V-mBvcvv" name="qiskit-nature-cp2k">
    <mxGraphModel grid="1" page="1" gridSize="10" guides="1" tooltips="1" connect="1" arrows="1" fold="1" pageScale="1" pageWidth="1169" pageHeight="827" math="0" shadow="0">
      <root>
        <mxCell id="0" />
        <mxCell id="1" parent="0" />
        <mxCell id="6PsSYLJeWe_5-4C72G08-27" value="" style="rounded=0;whiteSpace=wrap;html=1;dashed=1;" vertex="1" parent="1">
          <mxGeometry x="330" y="210" width="140" height="320" as="geometry" />
        </mxCell>
        <mxCell id="6PsSYLJeWe_5-4C72G08-1" value="Taken from arXiv:2404.18737 (2024)" style="text;html=1;strokeColor=none;fillColor=none;align=center;verticalAlign=middle;whiteSpace=wrap;rounded=0;" vertex="1" parent="1">
          <mxGeometry x="120" y="20" width="350" height="20" as="geometry" />
        </mxCell>
        <mxCell id="6PsSYLJeWe_5-4C72G08-2" value="CP2k" style="rounded=0;whiteSpace=wrap;html=1;labelPosition=center;verticalLabelPosition=top;align=center;verticalAlign=bottom;dashed=1;" vertex="1" parent="1">
          <mxGeometry x="120" y="140" width="190" height="400" as="geometry" />
        </mxCell>
        <mxCell id="6PsSYLJeWe_5-4C72G08-4" value="User" style="shape=umlActor;verticalLabelPosition=bottom;labelBackgroundColor=#ffffff;verticalAlign=top;html=1;outlineConnect=0;" vertex="1" parent="1">
          <mxGeometry x="385" y="110" width="30" height="60" as="geometry" />
        </mxCell>
        <mxCell id="6PsSYLJeWe_5-4C72G08-6" value="Qiskit" style="rounded=0;whiteSpace=wrap;html=1;labelPosition=center;verticalLabelPosition=top;align=center;verticalAlign=bottom;dashed=1;" vertex="1" parent="1">
          <mxGeometry x="489" y="130" width="190" height="410" as="geometry" />
        </mxCell>
        <mxCell id="6PsSYLJeWe_5-4C72G08-7" value="" style="rounded=0;whiteSpace=wrap;html=1;fillColor=#ffe6cc;strokeColor=#d79b00;" vertex="1" parent="1">
          <mxGeometry x="150" y="210" width="140" height="320" as="geometry" />
        </mxCell>
        <mxCell id="6PsSYLJeWe_5-4C72G08-8" value="SCF" style="rounded=0;whiteSpace=wrap;html=1;" vertex="1" parent="1">
          <mxGeometry x="175" y="150" width="90" height="40" as="geometry" />
        </mxCell>
        <mxCell id="6PsSYLJeWe_5-4C72G08-9" value="quantum preparation" style="rounded=0;whiteSpace=wrap;html=1;" vertex="1" parent="1">
          <mxGeometry x="548" y="140" width="90" height="40" as="geometry" />
        </mxCell>
        <mxCell id="6PsSYLJeWe_5-4C72G08-38" style="edgeStyle=orthogonalEdgeStyle;rounded=0;orthogonalLoop=1;jettySize=auto;html=1;exitX=1;exitY=0.5;exitDx=0;exitDy=0;entryX=0;entryY=0.5;entryDx=0;entryDy=0;" edge="1" parent="1" source="6PsSYLJeWe_5-4C72G08-10" target="6PsSYLJeWe_5-4C72G08-28">
          <mxGeometry relative="1" as="geometry" />
        </mxCell>
        <mxCell id="6PsSYLJeWe_5-4C72G08-43" style="edgeStyle=orthogonalEdgeStyle;rounded=0;orthogonalLoop=1;jettySize=auto;html=1;exitX=0.5;exitY=1;exitDx=0;exitDy=0;entryX=0.5;entryY=0;entryDx=0;entryDy=0;" edge="1" parent="1" source="6PsSYLJeWe_5-4C72G08-10" target="6PsSYLJeWe_5-4C72G08-11">
          <mxGeometry relative="1" as="geometry" />
        </mxCell>
        <mxCell id="6PsSYLJeWe_5-4C72G08-10" value="connect" style="rounded=0;whiteSpace=wrap;html=1;" vertex="1" parent="1">
          <mxGeometry x="175" y="220" width="90" height="40" as="geometry" />
        </mxCell>
        <mxCell id="6PsSYLJeWe_5-4C72G08-40" style="edgeStyle=orthogonalEdgeStyle;rounded=0;orthogonalLoop=1;jettySize=auto;html=1;exitX=1;exitY=0.5;exitDx=0;exitDy=0;" edge="1" parent="1" source="6PsSYLJeWe_5-4C72G08-11" target="6PsSYLJeWe_5-4C72G08-29">
          <mxGeometry relative="1" as="geometry" />
        </mxCell>
        <mxCell id="6PsSYLJeWe_5-4C72G08-42" style="edgeStyle=orthogonalEdgeStyle;rounded=0;orthogonalLoop=1;jettySize=auto;html=1;exitX=0.5;exitY=1;exitDx=0;exitDy=0;entryX=0.5;entryY=0;entryDx=0;entryDy=0;" edge="1" parent="1" source="6PsSYLJeWe_5-4C72G08-11" target="6PsSYLJeWe_5-4C72G08-12">
          <mxGeometry relative="1" as="geometry" />
        </mxCell>
        <mxCell id="6PsSYLJeWe_5-4C72G08-11" value="initialization&lt;br&gt;i = 0" style="rounded=0;whiteSpace=wrap;html=1;" vertex="1" parent="1">
          <mxGeometry x="175" y="280" width="90" height="40" as="geometry" />
        </mxCell>
        <mxCell id="6PsSYLJeWe_5-4C72G08-12" value="update&lt;br&gt;i = i + 1" style="rounded=0;whiteSpace=wrap;html=1;" vertex="1" parent="1">
          <mxGeometry x="175" y="340" width="90" height="40" as="geometry" />
        </mxCell>
        <mxCell id="6PsSYLJeWe_5-4C72G08-15" value="Yes" style="edgeStyle=orthogonalEdgeStyle;rounded=0;orthogonalLoop=1;jettySize=auto;html=1;exitX=0.5;exitY=1;exitDx=0;exitDy=0;entryX=0.5;entryY=0;entryDx=0;entryDy=0;" edge="1" parent="1" source="6PsSYLJeWe_5-4C72G08-13" target="6PsSYLJeWe_5-4C72G08-14">
          <mxGeometry x="0.3333" relative="1" as="geometry">
            <Array as="points">
              <mxPoint x="220" y="430" />
              <mxPoint x="220" y="430" />
            </Array>
            <mxPoint as="offset" />
          </mxGeometry>
        </mxCell>
        <mxCell id="6PsSYLJeWe_5-4C72G08-18" value="No" style="edgeStyle=orthogonalEdgeStyle;rounded=0;orthogonalLoop=1;jettySize=auto;html=1;exitX=0.5;exitY=0;exitDx=0;exitDy=0;entryX=0.5;entryY=1;entryDx=0;entryDy=0;" edge="1" parent="1" source="6PsSYLJeWe_5-4C72G08-13" target="6PsSYLJeWe_5-4C72G08-12">
          <mxGeometry relative="1" as="geometry" />
        </mxCell>
        <mxCell id="cgbHi82z9HjZ0svs5ui4-1" value="" style="edgeStyle=orthogonalEdgeStyle;rounded=0;orthogonalLoop=1;jettySize=auto;html=1;" edge="1" parent="1" source="6PsSYLJeWe_5-4C72G08-13" target="6PsSYLJeWe_5-4C72G08-14">
          <mxGeometry relative="1" as="geometry" />
        </mxCell>
        <mxCell id="6PsSYLJeWe_5-4C72G08-13" value="done?" style="rhombus;whiteSpace=wrap;html=1;" vertex="1" parent="1">
          <mxGeometry x="197.5" y="410" width="45" height="40" as="geometry" />
        </mxCell>
        <mxCell id="6PsSYLJeWe_5-4C72G08-35" style="edgeStyle=orthogonalEdgeStyle;rounded=0;orthogonalLoop=1;jettySize=auto;html=1;exitX=1;exitY=0.5;exitDx=0;exitDy=0;entryX=0;entryY=0.5;entryDx=0;entryDy=0;" edge="1" parent="1" source="6PsSYLJeWe_5-4C72G08-14" target="6PsSYLJeWe_5-4C72G08-31">
          <mxGeometry relative="1" as="geometry" />
        </mxCell>
        <mxCell id="6PsSYLJeWe_5-4C72G08-14" value="shutdown" style="rounded=0;whiteSpace=wrap;html=1;" vertex="1" parent="1">
          <mxGeometry x="175" y="480" width="90" height="40" as="geometry" />
        </mxCell>
        <mxCell id="6PsSYLJeWe_5-4C72G08-21" value="" style="rounded=0;whiteSpace=wrap;html=1;fillColor=#e1d5e7;strokeColor=#9673a6;" vertex="1" parent="1">
          <mxGeometry x="514" y="210" width="140" height="320" as="geometry" />
        </mxCell>
        <mxCell id="6PsSYLJeWe_5-4C72G08-44" style="edgeStyle=orthogonalEdgeStyle;rounded=0;orthogonalLoop=1;jettySize=auto;html=1;exitX=0.5;exitY=1;exitDx=0;exitDy=0;entryX=0.5;entryY=0;entryDx=0;entryDy=0;" edge="1" parent="1" source="6PsSYLJeWe_5-4C72G08-22" target="6PsSYLJeWe_5-4C72G08-23">
          <mxGeometry relative="1" as="geometry" />
        </mxCell>
        <mxCell id="6PsSYLJeWe_5-4C72G08-22" value="connect" style="rounded=0;whiteSpace=wrap;html=1;" vertex="1" parent="1">
          <mxGeometry x="539" y="220" width="90" height="40" as="geometry" />
        </mxCell>
        <mxCell id="6PsSYLJeWe_5-4C72G08-45" style="edgeStyle=orthogonalEdgeStyle;rounded=0;orthogonalLoop=1;jettySize=auto;html=1;exitX=0.5;exitY=1;exitDx=0;exitDy=0;entryX=0.5;entryY=0;entryDx=0;entryDy=0;" edge="1" parent="1" source="6PsSYLJeWe_5-4C72G08-23" target="6PsSYLJeWe_5-4C72G08-24">
          <mxGeometry relative="1" as="geometry" />
        </mxCell>
        <mxCell id="6PsSYLJeWe_5-4C72G08-23" value="fetch transferred data" style="rounded=0;whiteSpace=wrap;html=1;" vertex="1" parent="1">
          <mxGeometry x="539" y="280" width="90" height="40" as="geometry" />
        </mxCell>
        <mxCell id="6PsSYLJeWe_5-4C72G08-37" style="edgeStyle=orthogonalEdgeStyle;rounded=0;orthogonalLoop=1;jettySize=auto;html=1;exitX=0.5;exitY=1;exitDx=0;exitDy=0;entryX=1;entryY=0.5;entryDx=0;entryDy=0;" edge="1" parent="1" source="6PsSYLJeWe_5-4C72G08-24" target="6PsSYLJeWe_5-4C72G08-30">
          <mxGeometry relative="1" as="geometry" />
        </mxCell>
        <mxCell id="6PsSYLJeWe_5-4C72G08-24" value="solve (VQE)" style="rounded=0;whiteSpace=wrap;html=1;" vertex="1" parent="1">
          <mxGeometry x="539" y="350" width="90" height="40" as="geometry" />
        </mxCell>
        <mxCell id="6PsSYLJeWe_5-4C72G08-25" value="shutdown" style="rounded=0;whiteSpace=wrap;html=1;" vertex="1" parent="1">
          <mxGeometry x="548" y="480" width="90" height="40" as="geometry" />
        </mxCell>
        <mxCell id="6PsSYLJeWe_5-4C72G08-39" style="edgeStyle=orthogonalEdgeStyle;rounded=0;orthogonalLoop=1;jettySize=auto;html=1;exitX=1;exitY=0.5;exitDx=0;exitDy=0;entryX=0;entryY=0.5;entryDx=0;entryDy=0;" edge="1" parent="1" source="6PsSYLJeWe_5-4C72G08-28" target="6PsSYLJeWe_5-4C72G08-22">
          <mxGeometry relative="1" as="geometry" />
        </mxCell>
        <mxCell id="6PsSYLJeWe_5-4C72G08-28" value="handshake" style="rounded=0;whiteSpace=wrap;html=1;" vertex="1" parent="1">
          <mxGeometry x="355" y="220" width="90" height="40" as="geometry" />
        </mxCell>
        <mxCell id="6PsSYLJeWe_5-4C72G08-41" style="edgeStyle=orthogonalEdgeStyle;rounded=0;orthogonalLoop=1;jettySize=auto;html=1;exitX=1;exitY=0.5;exitDx=0;exitDy=0;entryX=0;entryY=0.5;entryDx=0;entryDy=0;" edge="1" parent="1" source="6PsSYLJeWe_5-4C72G08-29" target="6PsSYLJeWe_5-4C72G08-23">
          <mxGeometry relative="1" as="geometry" />
        </mxCell>
        <mxCell id="6PsSYLJeWe_5-4C72G08-29" value="transfer data" style="rounded=0;whiteSpace=wrap;html=1;" vertex="1" parent="1">
          <mxGeometry x="355" y="280" width="90" height="40" as="geometry" />
        </mxCell>
        <mxCell id="6PsSYLJeWe_5-4C72G08-36" style="edgeStyle=orthogonalEdgeStyle;rounded=0;orthogonalLoop=1;jettySize=auto;html=1;exitX=0;exitY=0.5;exitDx=0;exitDy=0;" edge="1" parent="1" source="6PsSYLJeWe_5-4C72G08-30" target="6PsSYLJeWe_5-4C72G08-13">
          <mxGeometry relative="1" as="geometry" />
        </mxCell>
        <mxCell id="6PsSYLJeWe_5-4C72G08-30" value="return solution" style="rounded=0;whiteSpace=wrap;html=1;" vertex="1" parent="1">
          <mxGeometry x="355" y="410" width="90" height="40" as="geometry" />
        </mxCell>
        <mxCell id="6PsSYLJeWe_5-4C72G08-33" style="edgeStyle=orthogonalEdgeStyle;rounded=0;orthogonalLoop=1;jettySize=auto;html=1;exitX=1;exitY=0.5;exitDx=0;exitDy=0;entryX=0;entryY=0.5;entryDx=0;entryDy=0;" edge="1" parent="1" source="6PsSYLJeWe_5-4C72G08-31" target="6PsSYLJeWe_5-4C72G08-25">
          <mxGeometry relative="1" as="geometry" />
        </mxCell>
        <mxCell id="6PsSYLJeWe_5-4C72G08-31" value="close" style="rounded=0;whiteSpace=wrap;html=1;" vertex="1" parent="1">
          <mxGeometry x="355" y="480" width="90" height="40" as="geometry" />
        </mxCell>
        <mxCell id="6PsSYLJeWe_5-4C72G08-46" value="loop" style="rounded=0;whiteSpace=wrap;html=1;labelPosition=left;verticalLabelPosition=top;align=right;verticalAlign=bottom;strokeColor=#8F8F8F;fillColor=none;strokeWidth=2;" vertex="1" parent="1">
          <mxGeometry x="90" y="265" width="640" height="205" as="geometry" />
        </mxCell>
      </root>
    </mxGraphModel>
  </diagram>
  <diagram name="qiskit-nature-cp2k-braket" id="dNfk6bF_a3CbxUnushoO">
    <mxGraphModel grid="1" page="1" gridSize="10" guides="1" tooltips="1" connect="1" arrows="1" fold="1" pageScale="1" pageWidth="1169" pageHeight="827" math="0" shadow="0">
      <root>
        <mxCell id="i03xkLX1x6joK6ukUFWO-0" />
        <mxCell id="i03xkLX1x6joK6ukUFWO-1" parent="i03xkLX1x6joK6ukUFWO-0" />
        <mxCell id="i03xkLX1x6joK6ukUFWO-2" value="" style="rounded=0;whiteSpace=wrap;html=1;dashed=1;" vertex="1" parent="i03xkLX1x6joK6ukUFWO-1">
          <mxGeometry x="330" y="210" width="140" height="320" as="geometry" />
        </mxCell>
        <mxCell id="i03xkLX1x6joK6ukUFWO-3" value="Taken from arXiv:2404.18737 (2024)" style="text;html=1;strokeColor=none;fillColor=none;align=center;verticalAlign=middle;whiteSpace=wrap;rounded=0;" vertex="1" parent="i03xkLX1x6joK6ukUFWO-1">
          <mxGeometry x="20" y="20" width="350" height="20" as="geometry" />
        </mxCell>
        <mxCell id="i03xkLX1x6joK6ukUFWO-4" value="CP2k" style="rounded=0;whiteSpace=wrap;html=1;labelPosition=center;verticalLabelPosition=top;align=center;verticalAlign=bottom;dashed=1;" vertex="1" parent="i03xkLX1x6joK6ukUFWO-1">
          <mxGeometry x="120" y="140" width="190" height="400" as="geometry" />
        </mxCell>
        <mxCell id="i03xkLX1x6joK6ukUFWO-5" value="User" style="shape=umlActor;verticalLabelPosition=bottom;labelBackgroundColor=#ffffff;verticalAlign=top;html=1;outlineConnect=0;" vertex="1" parent="i03xkLX1x6joK6ukUFWO-1">
          <mxGeometry x="385" y="110" width="30" height="60" as="geometry" />
        </mxCell>
        <mxCell id="i03xkLX1x6joK6ukUFWO-6" value="Qiskit" style="rounded=0;whiteSpace=wrap;html=1;labelPosition=center;verticalLabelPosition=top;align=center;verticalAlign=bottom;dashed=1;" vertex="1" parent="i03xkLX1x6joK6ukUFWO-1">
          <mxGeometry x="489" y="130" width="190" height="410" as="geometry" />
        </mxCell>
        <mxCell id="i03xkLX1x6joK6ukUFWO-7" value="" style="rounded=0;whiteSpace=wrap;html=1;fillColor=#ffe6cc;strokeColor=#d79b00;" vertex="1" parent="i03xkLX1x6joK6ukUFWO-1">
          <mxGeometry x="150" y="210" width="140" height="320" as="geometry" />
        </mxCell>
        <mxCell id="i03xkLX1x6joK6ukUFWO-8" value="SCF" style="rounded=0;whiteSpace=wrap;html=1;" vertex="1" parent="i03xkLX1x6joK6ukUFWO-1">
          <mxGeometry x="175" y="150" width="90" height="40" as="geometry" />
        </mxCell>
        <mxCell id="i03xkLX1x6joK6ukUFWO-9" value="quantum preparation" style="rounded=0;whiteSpace=wrap;html=1;" vertex="1" parent="i03xkLX1x6joK6ukUFWO-1">
          <mxGeometry x="548" y="140" width="90" height="40" as="geometry" />
        </mxCell>
        <mxCell id="i03xkLX1x6joK6ukUFWO-10" style="edgeStyle=orthogonalEdgeStyle;rounded=0;orthogonalLoop=1;jettySize=auto;html=1;exitX=1;exitY=0.5;exitDx=0;exitDy=0;entryX=0;entryY=0.5;entryDx=0;entryDy=0;" edge="1" parent="i03xkLX1x6joK6ukUFWO-1" source="i03xkLX1x6joK6ukUFWO-12" target="i03xkLX1x6joK6ukUFWO-32">
          <mxGeometry relative="1" as="geometry" />
        </mxCell>
        <mxCell id="i03xkLX1x6joK6ukUFWO-11" style="edgeStyle=orthogonalEdgeStyle;rounded=0;orthogonalLoop=1;jettySize=auto;html=1;exitX=0.5;exitY=1;exitDx=0;exitDy=0;entryX=0.5;entryY=0;entryDx=0;entryDy=0;" edge="1" parent="i03xkLX1x6joK6ukUFWO-1" source="i03xkLX1x6joK6ukUFWO-12" target="i03xkLX1x6joK6ukUFWO-15">
          <mxGeometry relative="1" as="geometry" />
        </mxCell>
        <mxCell id="i03xkLX1x6joK6ukUFWO-12" value="connect" style="rounded=0;whiteSpace=wrap;html=1;" vertex="1" parent="i03xkLX1x6joK6ukUFWO-1">
          <mxGeometry x="175" y="220" width="90" height="40" as="geometry" />
        </mxCell>
        <mxCell id="i03xkLX1x6joK6ukUFWO-13" style="edgeStyle=orthogonalEdgeStyle;rounded=0;orthogonalLoop=1;jettySize=auto;html=1;exitX=1;exitY=0.5;exitDx=0;exitDy=0;" edge="1" parent="i03xkLX1x6joK6ukUFWO-1" source="i03xkLX1x6joK6ukUFWO-15" target="i03xkLX1x6joK6ukUFWO-34">
          <mxGeometry relative="1" as="geometry" />
        </mxCell>
        <mxCell id="i03xkLX1x6joK6ukUFWO-14" style="edgeStyle=orthogonalEdgeStyle;rounded=0;orthogonalLoop=1;jettySize=auto;html=1;exitX=0.5;exitY=1;exitDx=0;exitDy=0;entryX=0.5;entryY=0;entryDx=0;entryDy=0;" edge="1" parent="i03xkLX1x6joK6ukUFWO-1" source="i03xkLX1x6joK6ukUFWO-15" target="i03xkLX1x6joK6ukUFWO-16">
          <mxGeometry relative="1" as="geometry" />
        </mxCell>
        <mxCell id="i03xkLX1x6joK6ukUFWO-15" value="initialization&lt;br&gt;i = 0" style="rounded=0;whiteSpace=wrap;html=1;" vertex="1" parent="i03xkLX1x6joK6ukUFWO-1">
          <mxGeometry x="175" y="280" width="90" height="40" as="geometry" />
        </mxCell>
        <mxCell id="i03xkLX1x6joK6ukUFWO-16" value="update&lt;br&gt;i = i + 1" style="rounded=0;whiteSpace=wrap;html=1;" vertex="1" parent="i03xkLX1x6joK6ukUFWO-1">
          <mxGeometry x="175" y="340" width="90" height="40" as="geometry" />
        </mxCell>
        <mxCell id="i03xkLX1x6joK6ukUFWO-17" value="Yes" style="edgeStyle=orthogonalEdgeStyle;rounded=0;orthogonalLoop=1;jettySize=auto;html=1;exitX=0.5;exitY=1;exitDx=0;exitDy=0;entryX=0.5;entryY=0;entryDx=0;entryDy=0;" edge="1" parent="i03xkLX1x6joK6ukUFWO-1" source="i03xkLX1x6joK6ukUFWO-20" target="i03xkLX1x6joK6ukUFWO-22">
          <mxGeometry x="0.3333" relative="1" as="geometry">
            <Array as="points">
              <mxPoint x="220" y="430" />
              <mxPoint x="220" y="430" />
            </Array>
            <mxPoint as="offset" />
          </mxGeometry>
        </mxCell>
        <mxCell id="i03xkLX1x6joK6ukUFWO-18" value="No" style="edgeStyle=orthogonalEdgeStyle;rounded=0;orthogonalLoop=1;jettySize=auto;html=1;exitX=0.5;exitY=0;exitDx=0;exitDy=0;entryX=0.5;entryY=1;entryDx=0;entryDy=0;" edge="1" parent="i03xkLX1x6joK6ukUFWO-1" source="i03xkLX1x6joK6ukUFWO-20" target="i03xkLX1x6joK6ukUFWO-16">
          <mxGeometry relative="1" as="geometry" />
        </mxCell>
        <mxCell id="i03xkLX1x6joK6ukUFWO-19" value="" style="edgeStyle=orthogonalEdgeStyle;rounded=0;orthogonalLoop=1;jettySize=auto;html=1;" edge="1" parent="i03xkLX1x6joK6ukUFWO-1" source="i03xkLX1x6joK6ukUFWO-20" target="i03xkLX1x6joK6ukUFWO-22">
          <mxGeometry relative="1" as="geometry" />
        </mxCell>
        <mxCell id="i03xkLX1x6joK6ukUFWO-20" value="done?" style="rhombus;whiteSpace=wrap;html=1;" vertex="1" parent="i03xkLX1x6joK6ukUFWO-1">
          <mxGeometry x="197.5" y="410" width="45" height="40" as="geometry" />
        </mxCell>
        <mxCell id="i03xkLX1x6joK6ukUFWO-21" style="edgeStyle=orthogonalEdgeStyle;rounded=0;orthogonalLoop=1;jettySize=auto;html=1;exitX=1;exitY=0.5;exitDx=0;exitDy=0;entryX=0;entryY=0.5;entryDx=0;entryDy=0;" edge="1" parent="i03xkLX1x6joK6ukUFWO-1" source="i03xkLX1x6joK6ukUFWO-22" target="i03xkLX1x6joK6ukUFWO-38">
          <mxGeometry relative="1" as="geometry" />
        </mxCell>
        <mxCell id="i03xkLX1x6joK6ukUFWO-22" value="shutdown" style="rounded=0;whiteSpace=wrap;html=1;" vertex="1" parent="i03xkLX1x6joK6ukUFWO-1">
          <mxGeometry x="175" y="480" width="90" height="40" as="geometry" />
        </mxCell>
        <mxCell id="i03xkLX1x6joK6ukUFWO-23" value="" style="rounded=0;whiteSpace=wrap;html=1;fillColor=#e1d5e7;strokeColor=#9673a6;" vertex="1" parent="i03xkLX1x6joK6ukUFWO-1">
          <mxGeometry x="514" y="210" width="140" height="320" as="geometry" />
        </mxCell>
        <mxCell id="i03xkLX1x6joK6ukUFWO-24" style="edgeStyle=orthogonalEdgeStyle;rounded=0;orthogonalLoop=1;jettySize=auto;html=1;exitX=0.5;exitY=1;exitDx=0;exitDy=0;entryX=0.5;entryY=0;entryDx=0;entryDy=0;" edge="1" parent="i03xkLX1x6joK6ukUFWO-1" source="i03xkLX1x6joK6ukUFWO-25" target="i03xkLX1x6joK6ukUFWO-27">
          <mxGeometry relative="1" as="geometry" />
        </mxCell>
        <mxCell id="i03xkLX1x6joK6ukUFWO-25" value="connect" style="rounded=0;whiteSpace=wrap;html=1;" vertex="1" parent="i03xkLX1x6joK6ukUFWO-1">
          <mxGeometry x="539" y="220" width="90" height="40" as="geometry" />
        </mxCell>
        <mxCell id="i03xkLX1x6joK6ukUFWO-26" style="edgeStyle=orthogonalEdgeStyle;rounded=0;orthogonalLoop=1;jettySize=auto;html=1;exitX=0.5;exitY=1;exitDx=0;exitDy=0;entryX=0.5;entryY=0;entryDx=0;entryDy=0;" edge="1" parent="i03xkLX1x6joK6ukUFWO-1" source="i03xkLX1x6joK6ukUFWO-27" target="i03xkLX1x6joK6ukUFWO-29">
          <mxGeometry relative="1" as="geometry" />
        </mxCell>
        <mxCell id="i03xkLX1x6joK6ukUFWO-27" value="fetch transferred data" style="rounded=0;whiteSpace=wrap;html=1;" vertex="1" parent="i03xkLX1x6joK6ukUFWO-1">
          <mxGeometry x="539" y="280" width="90" height="40" as="geometry" />
        </mxCell>
        <mxCell id="i03xkLX1x6joK6ukUFWO-28" style="edgeStyle=orthogonalEdgeStyle;rounded=0;orthogonalLoop=1;jettySize=auto;html=1;exitX=0.5;exitY=1;exitDx=0;exitDy=0;entryX=1;entryY=0.5;entryDx=0;entryDy=0;" edge="1" parent="i03xkLX1x6joK6ukUFWO-1" source="i03xkLX1x6joK6ukUFWO-29" target="i03xkLX1x6joK6ukUFWO-36">
          <mxGeometry relative="1" as="geometry" />
        </mxCell>
        <mxCell id="ZUH6oCQx8a9i3Ph0UvvE-8" style="edgeStyle=orthogonalEdgeStyle;rounded=0;orthogonalLoop=1;jettySize=auto;html=1;exitX=1;exitY=0.5;exitDx=0;exitDy=0;entryX=0;entryY=0.5;entryDx=0;entryDy=0;" edge="1" parent="i03xkLX1x6joK6ukUFWO-1" source="i03xkLX1x6joK6ukUFWO-29" target="_yZIs0iOa8gyUNb3kOBL-0">
          <mxGeometry relative="1" as="geometry" />
        </mxCell>
        <mxCell id="ZUH6oCQx8a9i3Ph0UvvE-9" style="edgeStyle=orthogonalEdgeStyle;rounded=0;orthogonalLoop=1;jettySize=auto;html=1;exitX=1;exitY=0.5;exitDx=0;exitDy=0;entryX=0;entryY=0.5;entryDx=0;entryDy=0;" edge="1" parent="i03xkLX1x6joK6ukUFWO-1" source="i03xkLX1x6joK6ukUFWO-29" target="_yZIs0iOa8gyUNb3kOBL-9">
          <mxGeometry relative="1" as="geometry" />
        </mxCell>
        <mxCell id="i03xkLX1x6joK6ukUFWO-29" value="solve (VQE)" style="rounded=0;whiteSpace=wrap;html=1;" vertex="1" parent="i03xkLX1x6joK6ukUFWO-1">
          <mxGeometry x="539" y="350" width="90" height="40" as="geometry" />
        </mxCell>
        <mxCell id="i03xkLX1x6joK6ukUFWO-30" value="shutdown" style="rounded=0;whiteSpace=wrap;html=1;" vertex="1" parent="i03xkLX1x6joK6ukUFWO-1">
          <mxGeometry x="548" y="480" width="90" height="40" as="geometry" />
        </mxCell>
        <mxCell id="i03xkLX1x6joK6ukUFWO-31" style="edgeStyle=orthogonalEdgeStyle;rounded=0;orthogonalLoop=1;jettySize=auto;html=1;exitX=1;exitY=0.5;exitDx=0;exitDy=0;entryX=0;entryY=0.5;entryDx=0;entryDy=0;" edge="1" parent="i03xkLX1x6joK6ukUFWO-1" source="i03xkLX1x6joK6ukUFWO-32" target="i03xkLX1x6joK6ukUFWO-25">
          <mxGeometry relative="1" as="geometry" />
        </mxCell>
        <mxCell id="i03xkLX1x6joK6ukUFWO-32" value="handshake" style="rounded=0;whiteSpace=wrap;html=1;" vertex="1" parent="i03xkLX1x6joK6ukUFWO-1">
          <mxGeometry x="355" y="220" width="90" height="40" as="geometry" />
        </mxCell>
        <mxCell id="i03xkLX1x6joK6ukUFWO-33" style="edgeStyle=orthogonalEdgeStyle;rounded=0;orthogonalLoop=1;jettySize=auto;html=1;exitX=1;exitY=0.5;exitDx=0;exitDy=0;entryX=0;entryY=0.5;entryDx=0;entryDy=0;" edge="1" parent="i03xkLX1x6joK6ukUFWO-1" source="i03xkLX1x6joK6ukUFWO-34" target="i03xkLX1x6joK6ukUFWO-27">
          <mxGeometry relative="1" as="geometry" />
        </mxCell>
        <mxCell id="i03xkLX1x6joK6ukUFWO-34" value="transfer data" style="rounded=0;whiteSpace=wrap;html=1;" vertex="1" parent="i03xkLX1x6joK6ukUFWO-1">
          <mxGeometry x="355" y="280" width="90" height="40" as="geometry" />
        </mxCell>
        <mxCell id="i03xkLX1x6joK6ukUFWO-35" style="edgeStyle=orthogonalEdgeStyle;rounded=0;orthogonalLoop=1;jettySize=auto;html=1;exitX=0;exitY=0.5;exitDx=0;exitDy=0;" edge="1" parent="i03xkLX1x6joK6ukUFWO-1" source="i03xkLX1x6joK6ukUFWO-36" target="i03xkLX1x6joK6ukUFWO-20">
          <mxGeometry relative="1" as="geometry" />
        </mxCell>
        <mxCell id="i03xkLX1x6joK6ukUFWO-36" value="return solution" style="rounded=0;whiteSpace=wrap;html=1;" vertex="1" parent="i03xkLX1x6joK6ukUFWO-1">
          <mxGeometry x="355" y="410" width="90" height="40" as="geometry" />
        </mxCell>
        <mxCell id="i03xkLX1x6joK6ukUFWO-37" style="edgeStyle=orthogonalEdgeStyle;rounded=0;orthogonalLoop=1;jettySize=auto;html=1;exitX=1;exitY=0.5;exitDx=0;exitDy=0;entryX=0;entryY=0.5;entryDx=0;entryDy=0;" edge="1" parent="i03xkLX1x6joK6ukUFWO-1" source="i03xkLX1x6joK6ukUFWO-38" target="i03xkLX1x6joK6ukUFWO-30">
          <mxGeometry relative="1" as="geometry" />
        </mxCell>
        <mxCell id="i03xkLX1x6joK6ukUFWO-38" value="close" style="rounded=0;whiteSpace=wrap;html=1;" vertex="1" parent="i03xkLX1x6joK6ukUFWO-1">
          <mxGeometry x="355" y="480" width="90" height="40" as="geometry" />
        </mxCell>
        <mxCell id="i03xkLX1x6joK6ukUFWO-39" value="loop" style="rounded=0;whiteSpace=wrap;html=1;labelPosition=left;verticalLabelPosition=top;align=right;verticalAlign=bottom;strokeColor=#8F8F8F;fillColor=none;strokeWidth=2;" vertex="1" parent="i03xkLX1x6joK6ukUFWO-1">
          <mxGeometry x="90" y="267.5" width="640" height="205" as="geometry" />
        </mxCell>
        <mxCell id="N6IwShgwtUQdwTLIa3Ag-0" value="HybridJob" style="rounded=0;whiteSpace=wrap;html=1;strokeColor=#8F8F8F;strokeWidth=2;fillColor=none;labelPosition=center;verticalLabelPosition=top;align=center;verticalAlign=bottom;" vertex="1" parent="i03xkLX1x6joK6ukUFWO-1">
          <mxGeometry x="890" y="80" width="370" height="630" as="geometry" />
        </mxCell>
        <mxCell id="N6IwShgwtUQdwTLIa3Ag-1" value="" style="endArrow=none;dashed=1;html=1;entryX=0;entryY=0;entryDx=0;entryDy=0;exitX=1;exitY=0;exitDx=0;exitDy=0;" edge="1" parent="i03xkLX1x6joK6ukUFWO-1" source="i03xkLX1x6joK6ukUFWO-29" target="N6IwShgwtUQdwTLIa3Ag-0">
          <mxGeometry width="50" height="50" relative="1" as="geometry">
            <mxPoint x="770" y="350" as="sourcePoint" />
            <mxPoint x="840" y="170" as="targetPoint" />
          </mxGeometry>
        </mxCell>
        <mxCell id="N6IwShgwtUQdwTLIa3Ag-2" value="" style="endArrow=none;dashed=1;html=1;exitX=1;exitY=1;exitDx=0;exitDy=0;entryX=0;entryY=1;entryDx=0;entryDy=0;" edge="1" parent="i03xkLX1x6joK6ukUFWO-1" source="i03xkLX1x6joK6ukUFWO-29" target="N6IwShgwtUQdwTLIa3Ag-0">
          <mxGeometry width="50" height="50" relative="1" as="geometry">
            <mxPoint x="710" y="470" as="sourcePoint" />
            <mxPoint x="760" y="420" as="targetPoint" />
          </mxGeometry>
        </mxCell>
        <mxCell id="_yZIs0iOa8gyUNb3kOBL-0" value="qiskit-braket-provider" style="rounded=0;whiteSpace=wrap;html=1;strokeColor=#d6b656;strokeWidth=2;fillColor=#fff2cc;labelPosition=center;verticalLabelPosition=top;align=center;verticalAlign=bottom;" vertex="1" parent="i03xkLX1x6joK6ukUFWO-1">
          <mxGeometry x="920" y="115" width="160" height="275" as="geometry" />
        </mxCell>
        <mxCell id="_yZIs0iOa8gyUNb3kOBL-1" value="BraketLocalBackend" style="rounded=0;whiteSpace=wrap;html=1;strokeWidth=2;" vertex="1" parent="i03xkLX1x6joK6ukUFWO-1">
          <mxGeometry x="940" y="175" width="120" height="60" as="geometry" />
        </mxCell>
        <mxCell id="_yZIs0iOa8gyUNb3kOBL-2" style="edgeStyle=orthogonalEdgeStyle;rounded=0;orthogonalLoop=1;jettySize=auto;html=1;exitX=1;exitY=0.5;exitDx=0;exitDy=0;entryX=0;entryY=0.5;entryDx=0;entryDy=0;" edge="1" parent="i03xkLX1x6joK6ukUFWO-1" source="_yZIs0iOa8gyUNb3kOBL-5" target="_yZIs0iOa8gyUNb3kOBL-6">
          <mxGeometry relative="1" as="geometry" />
        </mxCell>
        <mxCell id="_yZIs0iOa8gyUNb3kOBL-3" style="edgeStyle=orthogonalEdgeStyle;rounded=0;orthogonalLoop=1;jettySize=auto;html=1;exitX=1;exitY=0.5;exitDx=0;exitDy=0;entryX=0;entryY=0.5;entryDx=0;entryDy=0;" edge="1" parent="i03xkLX1x6joK6ukUFWO-1" source="_yZIs0iOa8gyUNb3kOBL-5" target="_yZIs0iOa8gyUNb3kOBL-7">
          <mxGeometry relative="1" as="geometry" />
        </mxCell>
        <mxCell id="_yZIs0iOa8gyUNb3kOBL-4" style="edgeStyle=orthogonalEdgeStyle;rounded=0;orthogonalLoop=1;jettySize=auto;html=1;exitX=1;exitY=0.5;exitDx=0;exitDy=0;entryX=0;entryY=0.5;entryDx=0;entryDy=0;" edge="1" parent="i03xkLX1x6joK6ukUFWO-1" source="_yZIs0iOa8gyUNb3kOBL-5" target="_yZIs0iOa8gyUNb3kOBL-8">
          <mxGeometry relative="1" as="geometry" />
        </mxCell>
        <mxCell id="_yZIs0iOa8gyUNb3kOBL-5" value="Backend" style="rounded=0;whiteSpace=wrap;html=1;strokeWidth=2;" vertex="1" parent="i03xkLX1x6joK6ukUFWO-1">
          <mxGeometry x="940" y="260" width="120" height="60" as="geometry" />
        </mxCell>
        <mxCell id="_yZIs0iOa8gyUNb3kOBL-6" value="SV1" style="rounded=0;whiteSpace=wrap;html=1;strokeColor=#8F8F8F;strokeWidth=2;fillColor=none;" vertex="1" parent="i03xkLX1x6joK6ukUFWO-1">
          <mxGeometry x="1140" y="260" width="56" height="35" as="geometry" />
        </mxCell>
        <mxCell id="_yZIs0iOa8gyUNb3kOBL-7" value="IonQ" style="rounded=0;whiteSpace=wrap;html=1;strokeColor=#8F8F8F;strokeWidth=2;fillColor=none;" vertex="1" parent="i03xkLX1x6joK6ukUFWO-1">
          <mxGeometry x="1140" y="305" width="56" height="35" as="geometry" />
        </mxCell>
        <mxCell id="_yZIs0iOa8gyUNb3kOBL-8" value="IQM" style="rounded=0;whiteSpace=wrap;html=1;strokeColor=#8F8F8F;strokeWidth=2;fillColor=none;" vertex="1" parent="i03xkLX1x6joK6ukUFWO-1">
          <mxGeometry x="1140" y="355" width="56" height="35" as="geometry" />
        </mxCell>
        <mxCell id="_yZIs0iOa8gyUNb3kOBL-9" value="cuda-q" style="rounded=0;whiteSpace=wrap;html=1;strokeColor=#82b366;strokeWidth=2;fillColor=#d5e8d4;labelPosition=center;verticalLabelPosition=top;align=center;verticalAlign=bottom;" vertex="1" parent="i03xkLX1x6joK6ukUFWO-1">
          <mxGeometry x="920" y="420" width="160" height="270" as="geometry" />
        </mxCell>
        <mxCell id="ZUH6oCQx8a9i3Ph0UvvE-3" style="edgeStyle=orthogonalEdgeStyle;rounded=0;orthogonalLoop=1;jettySize=auto;html=1;exitX=1;exitY=0.5;exitDx=0;exitDy=0;entryX=0;entryY=0.5;entryDx=0;entryDy=0;" edge="1" parent="i03xkLX1x6joK6ukUFWO-1" source="_yZIs0iOa8gyUNb3kOBL-10" target="ZUH6oCQx8a9i3Ph0UvvE-1">
          <mxGeometry relative="1" as="geometry">
            <Array as="points">
              <mxPoint x="1100" y="560" />
              <mxPoint x="1100" y="510" />
            </Array>
          </mxGeometry>
        </mxCell>
        <mxCell id="ZUH6oCQx8a9i3Ph0UvvE-4" style="edgeStyle=orthogonalEdgeStyle;rounded=0;orthogonalLoop=1;jettySize=auto;html=1;exitX=1;exitY=0.5;exitDx=0;exitDy=0;" edge="1" parent="i03xkLX1x6joK6ukUFWO-1" source="_yZIs0iOa8gyUNb3kOBL-10" target="ZUH6oCQx8a9i3Ph0UvvE-2">
          <mxGeometry relative="1" as="geometry">
            <Array as="points">
              <mxPoint x="1100" y="560" />
              <mxPoint x="1100" y="600" />
            </Array>
          </mxGeometry>
        </mxCell>
        <mxCell id="ZUH6oCQx8a9i3Ph0UvvE-7" style="edgeStyle=orthogonalEdgeStyle;rounded=0;orthogonalLoop=1;jettySize=auto;html=1;exitX=0.5;exitY=1;exitDx=0;exitDy=0;entryX=0.5;entryY=0;entryDx=0;entryDy=0;" edge="1" parent="i03xkLX1x6joK6ukUFWO-1" source="_yZIs0iOa8gyUNb3kOBL-10" target="ZUH6oCQx8a9i3Ph0UvvE-6">
          <mxGeometry relative="1" as="geometry" />
        </mxCell>
        <mxCell id="_yZIs0iOa8gyUNb3kOBL-10" value="run kernel" style="rounded=0;whiteSpace=wrap;html=1;strokeWidth=2;" vertex="1" parent="i03xkLX1x6joK6ukUFWO-1">
          <mxGeometry x="940" y="530" width="120" height="60" as="geometry" />
        </mxCell>
        <mxCell id="ZUH6oCQx8a9i3Ph0UvvE-5" style="edgeStyle=orthogonalEdgeStyle;rounded=0;orthogonalLoop=1;jettySize=auto;html=1;exitX=0.5;exitY=1;exitDx=0;exitDy=0;entryX=0.5;entryY=0;entryDx=0;entryDy=0;" edge="1" parent="i03xkLX1x6joK6ukUFWO-1" source="ZUH6oCQx8a9i3Ph0UvvE-0" target="_yZIs0iOa8gyUNb3kOBL-10">
          <mxGeometry relative="1" as="geometry" />
        </mxCell>
        <mxCell id="ZUH6oCQx8a9i3Ph0UvvE-0" value="translate VQE from qiskit to cuda-q" style="rounded=0;whiteSpace=wrap;html=1;strokeWidth=2;" vertex="1" parent="i03xkLX1x6joK6ukUFWO-1">
          <mxGeometry x="940" y="440" width="120" height="60" as="geometry" />
        </mxCell>
        <mxCell id="ZUH6oCQx8a9i3Ph0UvvE-1" value="LocalBackend" style="rounded=0;whiteSpace=wrap;html=1;strokeWidth=2;" vertex="1" parent="i03xkLX1x6joK6ukUFWO-1">
          <mxGeometry x="1120" y="480" width="108" height="60" as="geometry" />
        </mxCell>
        <mxCell id="ZUH6oCQx8a9i3Ph0UvvE-2" value="QPU" style="rounded=0;whiteSpace=wrap;html=1;strokeWidth=2;" vertex="1" parent="i03xkLX1x6joK6ukUFWO-1">
          <mxGeometry x="1120" y="570" width="108" height="60" as="geometry" />
        </mxCell>
        <mxCell id="ZUH6oCQx8a9i3Ph0UvvE-6" value="gather results" style="rounded=0;whiteSpace=wrap;html=1;strokeWidth=2;" vertex="1" parent="i03xkLX1x6joK6ukUFWO-1">
          <mxGeometry x="940" y="610" width="120" height="60" as="geometry" />
        </mxCell>
      </root>
    </mxGraphModel>
  </diagram>
  <diagram id="MlmsOhLJjfOPZxzdpBic" name="braket-qiskit">
    <mxGraphModel dx="1024" dy="584" grid="1" gridSize="10" guides="1" tooltips="1" connect="1" arrows="1" fold="1" page="1" pageScale="1" pageWidth="1169" pageHeight="827" math="0" shadow="0">
      <root>
        <mxCell id="8oTB2HrO5kG9Z_p5DElc-0" />
        <mxCell id="8oTB2HrO5kG9Z_p5DElc-1" parent="8oTB2HrO5kG9Z_p5DElc-0" />
        <mxCell id="8oTB2HrO5kG9Z_p5DElc-24" value="qiskit-braket-provider" style="rounded=0;whiteSpace=wrap;html=1;strokeColor=#d6b656;strokeWidth=2;fillColor=#fff2cc;labelPosition=center;verticalLabelPosition=top;align=center;verticalAlign=bottom;" parent="8oTB2HrO5kG9Z_p5DElc-1" vertex="1">
          <mxGeometry x="350" y="40" width="160" height="420" as="geometry" />
        </mxCell>
        <mxCell id="8oTB2HrO5kG9Z_p5DElc-2" value="Qiskit" style="rounded=0;whiteSpace=wrap;html=1;strokeColor=#9673a6;strokeWidth=2;fillColor=#e1d5e7;labelPosition=center;verticalLabelPosition=top;align=center;verticalAlign=bottom;" parent="8oTB2HrO5kG9Z_p5DElc-1" vertex="1">
          <mxGeometry x="60" y="40" width="240" height="420" as="geometry" />
        </mxCell>
        <mxCell id="8oTB2HrO5kG9Z_p5DElc-16" style="edgeStyle=orthogonalEdgeStyle;rounded=0;orthogonalLoop=1;jettySize=auto;html=1;exitX=0;exitY=0.5;exitDx=0;exitDy=0;" parent="8oTB2HrO5kG9Z_p5DElc-1" source="8oTB2HrO5kG9Z_p5DElc-3" edge="1">
          <mxGeometry relative="1" as="geometry">
            <mxPoint x="230" y="330" as="targetPoint" />
            <Array as="points">
              <mxPoint x="330" y="130" />
              <mxPoint x="330" y="330" />
            </Array>
          </mxGeometry>
        </mxCell>
        <mxCell id="8oTB2HrO5kG9Z_p5DElc-19" style="edgeStyle=orthogonalEdgeStyle;rounded=0;orthogonalLoop=1;jettySize=auto;html=1;exitX=0;exitY=0.5;exitDx=0;exitDy=0;entryX=1;entryY=0.5;entryDx=0;entryDy=0;" parent="8oTB2HrO5kG9Z_p5DElc-1" source="8oTB2HrO5kG9Z_p5DElc-3" target="8oTB2HrO5kG9Z_p5DElc-17" edge="1">
          <mxGeometry relative="1" as="geometry">
            <Array as="points">
              <mxPoint x="330" y="130" />
              <mxPoint x="330" y="410" />
            </Array>
          </mxGeometry>
        </mxCell>
        <mxCell id="8oTB2HrO5kG9Z_p5DElc-3" value="BraketLocalBackend" style="rounded=0;whiteSpace=wrap;html=1;strokeWidth=2;" parent="8oTB2HrO5kG9Z_p5DElc-1" vertex="1">
          <mxGeometry x="370" y="100" width="120" height="60" as="geometry" />
        </mxCell>
        <mxCell id="8oTB2HrO5kG9Z_p5DElc-11" style="edgeStyle=orthogonalEdgeStyle;rounded=0;orthogonalLoop=1;jettySize=auto;html=1;exitX=1;exitY=0.5;exitDx=0;exitDy=0;entryX=0;entryY=0.5;entryDx=0;entryDy=0;" parent="8oTB2HrO5kG9Z_p5DElc-1" source="8oTB2HrO5kG9Z_p5DElc-4" target="8oTB2HrO5kG9Z_p5DElc-5" edge="1">
          <mxGeometry relative="1" as="geometry" />
        </mxCell>
        <mxCell id="8oTB2HrO5kG9Z_p5DElc-12" style="edgeStyle=orthogonalEdgeStyle;rounded=0;orthogonalLoop=1;jettySize=auto;html=1;exitX=1;exitY=0.5;exitDx=0;exitDy=0;entryX=0;entryY=0.5;entryDx=0;entryDy=0;" parent="8oTB2HrO5kG9Z_p5DElc-1" source="8oTB2HrO5kG9Z_p5DElc-4" target="8oTB2HrO5kG9Z_p5DElc-6" edge="1">
          <mxGeometry relative="1" as="geometry" />
        </mxCell>
        <mxCell id="8oTB2HrO5kG9Z_p5DElc-13" style="edgeStyle=orthogonalEdgeStyle;rounded=0;orthogonalLoop=1;jettySize=auto;html=1;exitX=1;exitY=0.5;exitDx=0;exitDy=0;entryX=0;entryY=0.5;entryDx=0;entryDy=0;" parent="8oTB2HrO5kG9Z_p5DElc-1" source="8oTB2HrO5kG9Z_p5DElc-4" target="8oTB2HrO5kG9Z_p5DElc-7" edge="1">
          <mxGeometry relative="1" as="geometry" />
        </mxCell>
        <mxCell id="8oTB2HrO5kG9Z_p5DElc-15" style="edgeStyle=orthogonalEdgeStyle;rounded=0;orthogonalLoop=1;jettySize=auto;html=1;exitX=0;exitY=0.5;exitDx=0;exitDy=0;entryX=1;entryY=0.5;entryDx=0;entryDy=0;" parent="8oTB2HrO5kG9Z_p5DElc-1" source="8oTB2HrO5kG9Z_p5DElc-4" target="8oTB2HrO5kG9Z_p5DElc-14" edge="1">
          <mxGeometry relative="1" as="geometry">
            <Array as="points">
              <mxPoint x="330" y="215" />
              <mxPoint x="330" y="330" />
            </Array>
          </mxGeometry>
        </mxCell>
        <mxCell id="8oTB2HrO5kG9Z_p5DElc-18" style="edgeStyle=orthogonalEdgeStyle;rounded=0;orthogonalLoop=1;jettySize=auto;html=1;exitX=0;exitY=0.5;exitDx=0;exitDy=0;entryX=1;entryY=0.5;entryDx=0;entryDy=0;" parent="8oTB2HrO5kG9Z_p5DElc-1" source="8oTB2HrO5kG9Z_p5DElc-4" target="8oTB2HrO5kG9Z_p5DElc-17" edge="1">
          <mxGeometry relative="1" as="geometry">
            <Array as="points">
              <mxPoint x="330" y="215" />
              <mxPoint x="330" y="410" />
            </Array>
          </mxGeometry>
        </mxCell>
        <mxCell id="8oTB2HrO5kG9Z_p5DElc-4" value="Backend" style="rounded=0;whiteSpace=wrap;html=1;strokeWidth=2;" parent="8oTB2HrO5kG9Z_p5DElc-1" vertex="1">
          <mxGeometry x="370" y="185" width="120" height="60" as="geometry" />
        </mxCell>
        <mxCell id="8oTB2HrO5kG9Z_p5DElc-5" value="SV1" style="rounded=0;whiteSpace=wrap;html=1;strokeColor=#8F8F8F;strokeWidth=2;fillColor=none;" parent="8oTB2HrO5kG9Z_p5DElc-1" vertex="1">
          <mxGeometry x="570" y="185" width="56" height="35" as="geometry" />
        </mxCell>
        <mxCell id="8oTB2HrO5kG9Z_p5DElc-6" value="IonQ" style="rounded=0;whiteSpace=wrap;html=1;strokeColor=#8F8F8F;strokeWidth=2;fillColor=none;" parent="8oTB2HrO5kG9Z_p5DElc-1" vertex="1">
          <mxGeometry x="570" y="230" width="56" height="35" as="geometry" />
        </mxCell>
        <mxCell id="8oTB2HrO5kG9Z_p5DElc-7" value="IQM" style="rounded=0;whiteSpace=wrap;html=1;strokeColor=#8F8F8F;strokeWidth=2;fillColor=none;" parent="8oTB2HrO5kG9Z_p5DElc-1" vertex="1">
          <mxGeometry x="570" y="280" width="56" height="35" as="geometry" />
        </mxCell>
        <mxCell id="8oTB2HrO5kG9Z_p5DElc-20" style="edgeStyle=orthogonalEdgeStyle;rounded=0;orthogonalLoop=1;jettySize=auto;html=1;exitX=0.5;exitY=1;exitDx=0;exitDy=0;entryX=0.5;entryY=0;entryDx=0;entryDy=0;" parent="8oTB2HrO5kG9Z_p5DElc-1" source="8oTB2HrO5kG9Z_p5DElc-8" target="8oTB2HrO5kG9Z_p5DElc-9" edge="1">
          <mxGeometry relative="1" as="geometry" />
        </mxCell>
        <mxCell id="8oTB2HrO5kG9Z_p5DElc-8" value="pySCF" style="rounded=0;whiteSpace=wrap;html=1;strokeWidth=2;" parent="8oTB2HrO5kG9Z_p5DElc-1" vertex="1">
          <mxGeometry x="110" y="60" width="120" height="60" as="geometry" />
        </mxCell>
        <mxCell id="8oTB2HrO5kG9Z_p5DElc-21" style="edgeStyle=orthogonalEdgeStyle;rounded=0;orthogonalLoop=1;jettySize=auto;html=1;exitX=0.5;exitY=1;exitDx=0;exitDy=0;entryX=0.5;entryY=0;entryDx=0;entryDy=0;" parent="8oTB2HrO5kG9Z_p5DElc-1" source="8oTB2HrO5kG9Z_p5DElc-9" target="8oTB2HrO5kG9Z_p5DElc-10" edge="1">
          <mxGeometry relative="1" as="geometry" />
        </mxCell>
        <mxCell id="8oTB2HrO5kG9Z_p5DElc-9" value="JordanWignerMapper" style="rounded=0;whiteSpace=wrap;html=1;strokeWidth=2;" parent="8oTB2HrO5kG9Z_p5DElc-1" vertex="1">
          <mxGeometry x="110" y="140" width="120" height="60" as="geometry" />
        </mxCell>
        <mxCell id="8oTB2HrO5kG9Z_p5DElc-22" style="edgeStyle=orthogonalEdgeStyle;rounded=0;orthogonalLoop=1;jettySize=auto;html=1;exitX=0.5;exitY=1;exitDx=0;exitDy=0;entryX=0.5;entryY=0;entryDx=0;entryDy=0;" parent="8oTB2HrO5kG9Z_p5DElc-1" source="8oTB2HrO5kG9Z_p5DElc-10" target="8oTB2HrO5kG9Z_p5DElc-14" edge="1">
          <mxGeometry relative="1" as="geometry" />
        </mxCell>
        <mxCell id="8oTB2HrO5kG9Z_p5DElc-10" value="UCCSD" style="rounded=0;whiteSpace=wrap;html=1;strokeWidth=2;" parent="8oTB2HrO5kG9Z_p5DElc-1" vertex="1">
          <mxGeometry x="110" y="217.5" width="120" height="60" as="geometry" />
        </mxCell>
        <mxCell id="8oTB2HrO5kG9Z_p5DElc-23" style="edgeStyle=orthogonalEdgeStyle;rounded=0;orthogonalLoop=1;jettySize=auto;html=1;exitX=0.5;exitY=1;exitDx=0;exitDy=0;entryX=0.5;entryY=0;entryDx=0;entryDy=0;" parent="8oTB2HrO5kG9Z_p5DElc-1" source="8oTB2HrO5kG9Z_p5DElc-14" target="8oTB2HrO5kG9Z_p5DElc-17" edge="1">
          <mxGeometry relative="1" as="geometry" />
        </mxCell>
        <mxCell id="8oTB2HrO5kG9Z_p5DElc-14" value="VQE" style="rounded=0;whiteSpace=wrap;html=1;strokeWidth=2;" parent="8oTB2HrO5kG9Z_p5DElc-1" vertex="1">
          <mxGeometry x="110" y="300" width="120" height="60" as="geometry" />
        </mxCell>
        <mxCell id="8oTB2HrO5kG9Z_p5DElc-17" value="QEOM" style="rounded=0;whiteSpace=wrap;html=1;strokeWidth=2;" parent="8oTB2HrO5kG9Z_p5DElc-1" vertex="1">
          <mxGeometry x="110" y="380" width="120" height="60" as="geometry" />
        </mxCell>
      </root>
    </mxGraphModel>
  </diagram>
  <diagram id="KUs_x410FIS7x0sHNaN1" name="braket-hybridjob-qiskit">
    <mxGraphModel dx="1024" dy="584" grid="1" gridSize="10" guides="1" tooltips="1" connect="1" arrows="1" fold="1" page="1" pageScale="1" pageWidth="1169" pageHeight="827" math="0" shadow="0">
      <root>
        <mxCell id="aroe7yJxy_FW3ghrxB6u-0" />
        <mxCell id="aroe7yJxy_FW3ghrxB6u-1" parent="aroe7yJxy_FW3ghrxB6u-0" />
        <mxCell id="QuAaUVp5eWYum5ZdhYwP-0" value="qiskit-braket-provider" style="rounded=0;whiteSpace=wrap;html=1;strokeColor=#d6b656;strokeWidth=2;fillColor=#fff2cc;labelPosition=center;verticalLabelPosition=top;align=center;verticalAlign=bottom;" parent="aroe7yJxy_FW3ghrxB6u-1" vertex="1">
          <mxGeometry x="360" y="60" width="160" height="420" as="geometry" />
        </mxCell>
        <mxCell id="QuAaUVp5eWYum5ZdhYwP-1" value="Qiskit" style="rounded=0;whiteSpace=wrap;html=1;strokeColor=#9673a6;strokeWidth=2;fillColor=#e1d5e7;labelPosition=center;verticalLabelPosition=top;align=center;verticalAlign=bottom;" parent="aroe7yJxy_FW3ghrxB6u-1" vertex="1">
          <mxGeometry x="70" y="60" width="240" height="420" as="geometry" />
        </mxCell>
        <mxCell id="QuAaUVp5eWYum5ZdhYwP-2" style="edgeStyle=orthogonalEdgeStyle;rounded=0;orthogonalLoop=1;jettySize=auto;html=1;exitX=0;exitY=0.5;exitDx=0;exitDy=0;" parent="aroe7yJxy_FW3ghrxB6u-1" source="QuAaUVp5eWYum5ZdhYwP-4" edge="1">
          <mxGeometry relative="1" as="geometry">
            <mxPoint x="240" y="350" as="targetPoint" />
            <Array as="points">
              <mxPoint x="340" y="150" />
              <mxPoint x="340" y="350" />
            </Array>
          </mxGeometry>
        </mxCell>
        <mxCell id="QuAaUVp5eWYum5ZdhYwP-3" style="edgeStyle=orthogonalEdgeStyle;rounded=0;orthogonalLoop=1;jettySize=auto;html=1;exitX=0;exitY=0.5;exitDx=0;exitDy=0;entryX=1;entryY=0.5;entryDx=0;entryDy=0;" parent="aroe7yJxy_FW3ghrxB6u-1" source="QuAaUVp5eWYum5ZdhYwP-4" target="QuAaUVp5eWYum5ZdhYwP-22" edge="1">
          <mxGeometry relative="1" as="geometry">
            <Array as="points">
              <mxPoint x="340" y="150" />
              <mxPoint x="340" y="430" />
            </Array>
          </mxGeometry>
        </mxCell>
        <mxCell id="QuAaUVp5eWYum5ZdhYwP-4" value="BraketLocalBackend" style="rounded=0;whiteSpace=wrap;html=1;strokeWidth=2;" parent="aroe7yJxy_FW3ghrxB6u-1" vertex="1">
          <mxGeometry x="380" y="120" width="120" height="60" as="geometry" />
        </mxCell>
        <mxCell id="QuAaUVp5eWYum5ZdhYwP-5" style="edgeStyle=orthogonalEdgeStyle;rounded=0;orthogonalLoop=1;jettySize=auto;html=1;exitX=1;exitY=0.5;exitDx=0;exitDy=0;entryX=0;entryY=0.5;entryDx=0;entryDy=0;" parent="aroe7yJxy_FW3ghrxB6u-1" source="QuAaUVp5eWYum5ZdhYwP-10" target="QuAaUVp5eWYum5ZdhYwP-11" edge="1">
          <mxGeometry relative="1" as="geometry" />
        </mxCell>
        <mxCell id="QuAaUVp5eWYum5ZdhYwP-6" style="edgeStyle=orthogonalEdgeStyle;rounded=0;orthogonalLoop=1;jettySize=auto;html=1;exitX=1;exitY=0.5;exitDx=0;exitDy=0;entryX=0;entryY=0.5;entryDx=0;entryDy=0;" parent="aroe7yJxy_FW3ghrxB6u-1" source="QuAaUVp5eWYum5ZdhYwP-10" target="QuAaUVp5eWYum5ZdhYwP-12" edge="1">
          <mxGeometry relative="1" as="geometry" />
        </mxCell>
        <mxCell id="QuAaUVp5eWYum5ZdhYwP-7" style="edgeStyle=orthogonalEdgeStyle;rounded=0;orthogonalLoop=1;jettySize=auto;html=1;exitX=1;exitY=0.5;exitDx=0;exitDy=0;entryX=0;entryY=0.5;entryDx=0;entryDy=0;" parent="aroe7yJxy_FW3ghrxB6u-1" source="QuAaUVp5eWYum5ZdhYwP-10" target="QuAaUVp5eWYum5ZdhYwP-13" edge="1">
          <mxGeometry relative="1" as="geometry" />
        </mxCell>
        <mxCell id="QuAaUVp5eWYum5ZdhYwP-8" style="edgeStyle=orthogonalEdgeStyle;rounded=0;orthogonalLoop=1;jettySize=auto;html=1;exitX=0;exitY=0.5;exitDx=0;exitDy=0;entryX=1;entryY=0.5;entryDx=0;entryDy=0;" parent="aroe7yJxy_FW3ghrxB6u-1" source="QuAaUVp5eWYum5ZdhYwP-10" target="QuAaUVp5eWYum5ZdhYwP-21" edge="1">
          <mxGeometry relative="1" as="geometry">
            <Array as="points">
              <mxPoint x="340" y="235" />
              <mxPoint x="340" y="350" />
            </Array>
          </mxGeometry>
        </mxCell>
        <mxCell id="QuAaUVp5eWYum5ZdhYwP-9" style="edgeStyle=orthogonalEdgeStyle;rounded=0;orthogonalLoop=1;jettySize=auto;html=1;exitX=0;exitY=0.5;exitDx=0;exitDy=0;entryX=1;entryY=0.5;entryDx=0;entryDy=0;" parent="aroe7yJxy_FW3ghrxB6u-1" source="QuAaUVp5eWYum5ZdhYwP-10" target="QuAaUVp5eWYum5ZdhYwP-22" edge="1">
          <mxGeometry relative="1" as="geometry">
            <Array as="points">
              <mxPoint x="340" y="235" />
              <mxPoint x="340" y="430" />
            </Array>
          </mxGeometry>
        </mxCell>
        <mxCell id="QuAaUVp5eWYum5ZdhYwP-10" value="Backend" style="rounded=0;whiteSpace=wrap;html=1;strokeWidth=2;" parent="aroe7yJxy_FW3ghrxB6u-1" vertex="1">
          <mxGeometry x="380" y="205" width="120" height="60" as="geometry" />
        </mxCell>
        <mxCell id="QuAaUVp5eWYum5ZdhYwP-11" value="SV1" style="rounded=0;whiteSpace=wrap;html=1;strokeColor=#8F8F8F;strokeWidth=2;fillColor=none;" parent="aroe7yJxy_FW3ghrxB6u-1" vertex="1">
          <mxGeometry x="580" y="205" width="56" height="35" as="geometry" />
        </mxCell>
        <mxCell id="QuAaUVp5eWYum5ZdhYwP-12" value="IonQ" style="rounded=0;whiteSpace=wrap;html=1;strokeColor=#8F8F8F;strokeWidth=2;fillColor=none;" parent="aroe7yJxy_FW3ghrxB6u-1" vertex="1">
          <mxGeometry x="580" y="250" width="56" height="35" as="geometry" />
        </mxCell>
        <mxCell id="QuAaUVp5eWYum5ZdhYwP-13" value="IQM" style="rounded=0;whiteSpace=wrap;html=1;strokeColor=#8F8F8F;strokeWidth=2;fillColor=none;" parent="aroe7yJxy_FW3ghrxB6u-1" vertex="1">
          <mxGeometry x="580" y="300" width="56" height="35" as="geometry" />
        </mxCell>
        <mxCell id="QuAaUVp5eWYum5ZdhYwP-14" style="edgeStyle=orthogonalEdgeStyle;rounded=0;orthogonalLoop=1;jettySize=auto;html=1;exitX=0.5;exitY=1;exitDx=0;exitDy=0;entryX=0.5;entryY=0;entryDx=0;entryDy=0;" parent="aroe7yJxy_FW3ghrxB6u-1" source="QuAaUVp5eWYum5ZdhYwP-15" target="QuAaUVp5eWYum5ZdhYwP-17" edge="1">
          <mxGeometry relative="1" as="geometry" />
        </mxCell>
        <mxCell id="QuAaUVp5eWYum5ZdhYwP-15" value="pySCF" style="rounded=0;whiteSpace=wrap;html=1;strokeWidth=2;" parent="aroe7yJxy_FW3ghrxB6u-1" vertex="1">
          <mxGeometry x="120" y="80" width="120" height="60" as="geometry" />
        </mxCell>
        <mxCell id="QuAaUVp5eWYum5ZdhYwP-16" style="edgeStyle=orthogonalEdgeStyle;rounded=0;orthogonalLoop=1;jettySize=auto;html=1;exitX=0.5;exitY=1;exitDx=0;exitDy=0;entryX=0.5;entryY=0;entryDx=0;entryDy=0;" parent="aroe7yJxy_FW3ghrxB6u-1" source="QuAaUVp5eWYum5ZdhYwP-17" target="QuAaUVp5eWYum5ZdhYwP-19" edge="1">
          <mxGeometry relative="1" as="geometry" />
        </mxCell>
        <mxCell id="QuAaUVp5eWYum5ZdhYwP-17" value="JordanWignerMapper" style="rounded=0;whiteSpace=wrap;html=1;strokeWidth=2;" parent="aroe7yJxy_FW3ghrxB6u-1" vertex="1">
          <mxGeometry x="120" y="160" width="120" height="60" as="geometry" />
        </mxCell>
        <mxCell id="QuAaUVp5eWYum5ZdhYwP-18" style="edgeStyle=orthogonalEdgeStyle;rounded=0;orthogonalLoop=1;jettySize=auto;html=1;exitX=0.5;exitY=1;exitDx=0;exitDy=0;entryX=0.5;entryY=0;entryDx=0;entryDy=0;" parent="aroe7yJxy_FW3ghrxB6u-1" source="QuAaUVp5eWYum5ZdhYwP-19" target="QuAaUVp5eWYum5ZdhYwP-21" edge="1">
          <mxGeometry relative="1" as="geometry" />
        </mxCell>
        <mxCell id="QuAaUVp5eWYum5ZdhYwP-19" value="UCCSD" style="rounded=0;whiteSpace=wrap;html=1;strokeWidth=2;" parent="aroe7yJxy_FW3ghrxB6u-1" vertex="1">
          <mxGeometry x="120" y="237.5" width="120" height="60" as="geometry" />
        </mxCell>
        <mxCell id="QuAaUVp5eWYum5ZdhYwP-20" style="edgeStyle=orthogonalEdgeStyle;rounded=0;orthogonalLoop=1;jettySize=auto;html=1;exitX=0.5;exitY=1;exitDx=0;exitDy=0;entryX=0.5;entryY=0;entryDx=0;entryDy=0;" parent="aroe7yJxy_FW3ghrxB6u-1" source="QuAaUVp5eWYum5ZdhYwP-21" target="QuAaUVp5eWYum5ZdhYwP-22" edge="1">
          <mxGeometry relative="1" as="geometry" />
        </mxCell>
        <mxCell id="QuAaUVp5eWYum5ZdhYwP-21" value="VQE" style="rounded=0;whiteSpace=wrap;html=1;strokeWidth=2;" parent="aroe7yJxy_FW3ghrxB6u-1" vertex="1">
          <mxGeometry x="120" y="320" width="120" height="60" as="geometry" />
        </mxCell>
        <mxCell id="QuAaUVp5eWYum5ZdhYwP-22" value="QEOM" style="rounded=0;whiteSpace=wrap;html=1;strokeWidth=2;" parent="aroe7yJxy_FW3ghrxB6u-1" vertex="1">
          <mxGeometry x="120" y="400" width="120" height="60" as="geometry" />
        </mxCell>
        <mxCell id="QuAaUVp5eWYum5ZdhYwP-23" value="HybridJob" style="rounded=0;whiteSpace=wrap;html=1;strokeColor=#8F8F8F;strokeWidth=2;fillColor=none;labelPosition=center;verticalLabelPosition=top;align=center;verticalAlign=bottom;" parent="aroe7yJxy_FW3ghrxB6u-1" vertex="1">
          <mxGeometry x="30" y="30" width="670" height="490" as="geometry" />
        </mxCell>
      </root>
    </mxGraphModel>
  </diagram>
  <diagram id="PInTV9Y0qICKhOnpmZJV" name="cuda-q">
    <mxGraphModel dx="1024" dy="584" grid="1" gridSize="10" guides="1" tooltips="1" connect="1" arrows="1" fold="1" page="1" pageScale="1" pageWidth="1169" pageHeight="827" math="0" shadow="0">
      <root>
        <mxCell id="eiGgKmQN26v_vyFjLaZd-0" />
        <mxCell id="eiGgKmQN26v_vyFjLaZd-1" parent="eiGgKmQN26v_vyFjLaZd-0" />
        <mxCell id="hNWLHXLDHUe6-3z8ORU_-0" value="HybridJob" style="rounded=0;whiteSpace=wrap;html=1;strokeColor=#8F8F8F;strokeWidth=2;fillColor=none;labelPosition=center;verticalLabelPosition=top;align=center;verticalAlign=bottom;" parent="eiGgKmQN26v_vyFjLaZd-1" vertex="1">
          <mxGeometry x="340" y="70" width="260" height="280" as="geometry" />
        </mxCell>
        <mxCell id="hNWLHXLDHUe6-3z8ORU_-1" value="CUDA-Q" style="rounded=0;whiteSpace=wrap;html=1;strokeColor=#8F8F8F;strokeWidth=2;fillColor=none;labelPosition=center;verticalLabelPosition=top;align=center;verticalAlign=bottom;" parent="eiGgKmQN26v_vyFjLaZd-1" vertex="1">
          <mxGeometry x="380" y="100" width="190" height="210" as="geometry" />
        </mxCell>
        <mxCell id="hNWLHXLDHUe6-3z8ORU_-2" value="kernel" style="rounded=0;whiteSpace=wrap;html=1;strokeColor=#8F8F8F;strokeWidth=2;fillColor=none;" parent="eiGgKmQN26v_vyFjLaZd-1" vertex="1">
          <mxGeometry x="410" y="120" width="120" height="60" as="geometry" />
        </mxCell>
      </root>
    </mxGraphModel>
  </diagram>
  <diagram id="CglkSC9hGMjsGnS_MVYm" name="communication-isc-paper">
    <mxGraphModel grid="1" page="1" gridSize="10" guides="1" tooltips="1" connect="1" arrows="1" fold="1" pageScale="1" pageWidth="850" pageHeight="1100" math="0" shadow="0">
      <root>
        <mxCell id="0" />
        <mxCell id="1" parent="0" />
        <mxCell id="-Frc0PO0LDj_yuW4_diT-1" value="" style="rounded=0;whiteSpace=wrap;html=1;dashed=1;" vertex="1" parent="1">
          <mxGeometry x="330" y="210" width="140" height="320" as="geometry" />
        </mxCell>
        <mxCell id="-Frc0PO0LDj_yuW4_diT-2" value="&lt;b&gt;CP2k&lt;/b&gt;" style="rounded=0;whiteSpace=wrap;html=1;labelPosition=center;verticalLabelPosition=top;align=center;verticalAlign=bottom;dashed=1;" vertex="1" parent="1">
          <mxGeometry x="120" y="140" width="190" height="400" as="geometry" />
        </mxCell>
        <mxCell id="-Frc0PO0LDj_yuW4_diT-3" value="User" style="shape=umlActor;verticalLabelPosition=bottom;labelBackgroundColor=#ffffff;verticalAlign=top;html=1;outlineConnect=0;" vertex="1" parent="1">
          <mxGeometry x="385" y="110" width="30" height="60" as="geometry" />
        </mxCell>
        <mxCell id="-Frc0PO0LDj_yuW4_diT-4" value="&lt;b&gt;Qiskit&lt;/b&gt;" style="rounded=0;whiteSpace=wrap;html=1;labelPosition=center;verticalLabelPosition=top;align=center;verticalAlign=bottom;dashed=1;" vertex="1" parent="1">
          <mxGeometry x="489" y="130" width="190" height="410" as="geometry" />
        </mxCell>
        <mxCell id="-Frc0PO0LDj_yuW4_diT-5" value="" style="rounded=0;whiteSpace=wrap;html=1;fillColor=#ffe6cc;strokeColor=#d79b00;" vertex="1" parent="1">
          <mxGeometry x="150" y="210" width="140" height="320" as="geometry" />
        </mxCell>
        <mxCell id="-Frc0PO0LDj_yuW4_diT-6" value="SCF" style="rounded=0;whiteSpace=wrap;html=1;" vertex="1" parent="1">
          <mxGeometry x="175" y="150" width="90" height="40" as="geometry" />
        </mxCell>
        <mxCell id="-Frc0PO0LDj_yuW4_diT-7" value="quantum preparation" style="rounded=0;whiteSpace=wrap;html=1;" vertex="1" parent="1">
          <mxGeometry x="548" y="140" width="90" height="40" as="geometry" />
        </mxCell>
        <mxCell id="-Frc0PO0LDj_yuW4_diT-8" style="edgeStyle=orthogonalEdgeStyle;rounded=0;orthogonalLoop=1;jettySize=auto;html=1;exitX=1;exitY=0.5;exitDx=0;exitDy=0;entryX=0;entryY=0.5;entryDx=0;entryDy=0;" edge="1" parent="1" source="-Frc0PO0LDj_yuW4_diT-10" target="-Frc0PO0LDj_yuW4_diT-30">
          <mxGeometry relative="1" as="geometry" />
        </mxCell>
        <mxCell id="-Frc0PO0LDj_yuW4_diT-9" style="edgeStyle=orthogonalEdgeStyle;rounded=0;orthogonalLoop=1;jettySize=auto;html=1;exitX=0.5;exitY=1;exitDx=0;exitDy=0;entryX=0.5;entryY=0;entryDx=0;entryDy=0;" edge="1" parent="1" source="-Frc0PO0LDj_yuW4_diT-10" target="-Frc0PO0LDj_yuW4_diT-13">
          <mxGeometry relative="1" as="geometry" />
        </mxCell>
        <mxCell id="-Frc0PO0LDj_yuW4_diT-10" value="connect" style="rounded=0;whiteSpace=wrap;html=1;" vertex="1" parent="1">
          <mxGeometry x="175" y="220" width="90" height="40" as="geometry" />
        </mxCell>
        <mxCell id="-Frc0PO0LDj_yuW4_diT-11" style="edgeStyle=orthogonalEdgeStyle;rounded=0;orthogonalLoop=1;jettySize=auto;html=1;exitX=1;exitY=0.5;exitDx=0;exitDy=0;" edge="1" parent="1" source="-Frc0PO0LDj_yuW4_diT-13" target="-Frc0PO0LDj_yuW4_diT-32">
          <mxGeometry relative="1" as="geometry" />
        </mxCell>
        <mxCell id="-Frc0PO0LDj_yuW4_diT-12" style="edgeStyle=orthogonalEdgeStyle;rounded=0;orthogonalLoop=1;jettySize=auto;html=1;exitX=0.5;exitY=1;exitDx=0;exitDy=0;entryX=0.5;entryY=0;entryDx=0;entryDy=0;" edge="1" parent="1" source="-Frc0PO0LDj_yuW4_diT-13" target="-Frc0PO0LDj_yuW4_diT-14">
          <mxGeometry relative="1" as="geometry" />
        </mxCell>
        <mxCell id="-Frc0PO0LDj_yuW4_diT-13" value="initialization&lt;br&gt;i = 0" style="rounded=0;whiteSpace=wrap;html=1;" vertex="1" parent="1">
          <mxGeometry x="175" y="280" width="90" height="40" as="geometry" />
        </mxCell>
        <mxCell id="-Frc0PO0LDj_yuW4_diT-14" value="update&lt;br&gt;i = i + 1" style="rounded=0;whiteSpace=wrap;html=1;" vertex="1" parent="1">
          <mxGeometry x="175" y="340" width="90" height="40" as="geometry" />
        </mxCell>
        <mxCell id="-Frc0PO0LDj_yuW4_diT-15" value="Yes" style="edgeStyle=orthogonalEdgeStyle;rounded=0;orthogonalLoop=1;jettySize=auto;html=1;exitX=0.5;exitY=1;exitDx=0;exitDy=0;entryX=0.5;entryY=0;entryDx=0;entryDy=0;" edge="1" parent="1" source="-Frc0PO0LDj_yuW4_diT-18" target="-Frc0PO0LDj_yuW4_diT-20">
          <mxGeometry x="0.3333" relative="1" as="geometry">
            <Array as="points">
              <mxPoint x="220" y="430" />
              <mxPoint x="220" y="430" />
            </Array>
            <mxPoint as="offset" />
          </mxGeometry>
        </mxCell>
        <mxCell id="-Frc0PO0LDj_yuW4_diT-16" value="No" style="edgeStyle=orthogonalEdgeStyle;rounded=0;orthogonalLoop=1;jettySize=auto;html=1;exitX=0.5;exitY=0;exitDx=0;exitDy=0;entryX=0.5;entryY=1;entryDx=0;entryDy=0;" edge="1" parent="1" source="-Frc0PO0LDj_yuW4_diT-18" target="-Frc0PO0LDj_yuW4_diT-14">
          <mxGeometry relative="1" as="geometry" />
        </mxCell>
        <mxCell id="-Frc0PO0LDj_yuW4_diT-17" value="" style="edgeStyle=orthogonalEdgeStyle;rounded=0;orthogonalLoop=1;jettySize=auto;html=1;" edge="1" parent="1" source="-Frc0PO0LDj_yuW4_diT-18" target="-Frc0PO0LDj_yuW4_diT-20">
          <mxGeometry relative="1" as="geometry" />
        </mxCell>
        <mxCell id="-Frc0PO0LDj_yuW4_diT-18" value="done?" style="rhombus;whiteSpace=wrap;html=1;" vertex="1" parent="1">
          <mxGeometry x="197.5" y="410" width="45" height="40" as="geometry" />
        </mxCell>
        <mxCell id="-Frc0PO0LDj_yuW4_diT-19" style="edgeStyle=orthogonalEdgeStyle;rounded=0;orthogonalLoop=1;jettySize=auto;html=1;exitX=1;exitY=0.5;exitDx=0;exitDy=0;entryX=0;entryY=0.5;entryDx=0;entryDy=0;" edge="1" parent="1" source="-Frc0PO0LDj_yuW4_diT-20" target="-Frc0PO0LDj_yuW4_diT-36">
          <mxGeometry relative="1" as="geometry" />
        </mxCell>
        <mxCell id="-Frc0PO0LDj_yuW4_diT-20" value="shutdown" style="rounded=0;whiteSpace=wrap;html=1;" vertex="1" parent="1">
          <mxGeometry x="175" y="480" width="90" height="40" as="geometry" />
        </mxCell>
        <mxCell id="-Frc0PO0LDj_yuW4_diT-21" value="" style="rounded=0;whiteSpace=wrap;html=1;fillColor=#e1d5e7;strokeColor=#9673a6;" vertex="1" parent="1">
          <mxGeometry x="514" y="210" width="140" height="320" as="geometry" />
        </mxCell>
        <mxCell id="-Frc0PO0LDj_yuW4_diT-22" style="edgeStyle=orthogonalEdgeStyle;rounded=0;orthogonalLoop=1;jettySize=auto;html=1;exitX=0.5;exitY=1;exitDx=0;exitDy=0;entryX=0.5;entryY=0;entryDx=0;entryDy=0;" edge="1" parent="1" source="-Frc0PO0LDj_yuW4_diT-23" target="-Frc0PO0LDj_yuW4_diT-25">
          <mxGeometry relative="1" as="geometry" />
        </mxCell>
        <mxCell id="-Frc0PO0LDj_yuW4_diT-23" value="connect" style="rounded=0;whiteSpace=wrap;html=1;" vertex="1" parent="1">
          <mxGeometry x="539" y="220" width="90" height="40" as="geometry" />
        </mxCell>
        <mxCell id="-Frc0PO0LDj_yuW4_diT-24" style="edgeStyle=orthogonalEdgeStyle;rounded=0;orthogonalLoop=1;jettySize=auto;html=1;exitX=0.5;exitY=1;exitDx=0;exitDy=0;entryX=0.5;entryY=0;entryDx=0;entryDy=0;" edge="1" parent="1" source="-Frc0PO0LDj_yuW4_diT-25" target="-Frc0PO0LDj_yuW4_diT-27">
          <mxGeometry relative="1" as="geometry" />
        </mxCell>
        <mxCell id="-Frc0PO0LDj_yuW4_diT-25" value="fetch transferred data" style="rounded=0;whiteSpace=wrap;html=1;" vertex="1" parent="1">
          <mxGeometry x="539" y="280" width="90" height="40" as="geometry" />
        </mxCell>
        <mxCell id="-Frc0PO0LDj_yuW4_diT-26" style="edgeStyle=orthogonalEdgeStyle;rounded=0;orthogonalLoop=1;jettySize=auto;html=1;exitX=0.5;exitY=1;exitDx=0;exitDy=0;entryX=1;entryY=0.5;entryDx=0;entryDy=0;" edge="1" parent="1" source="-Frc0PO0LDj_yuW4_diT-27" target="-Frc0PO0LDj_yuW4_diT-34">
          <mxGeometry relative="1" as="geometry" />
        </mxCell>
        <mxCell id="-Frc0PO0LDj_yuW4_diT-27" value="solve (VQE)" style="rounded=0;whiteSpace=wrap;html=1;" vertex="1" parent="1">
          <mxGeometry x="539" y="350" width="90" height="40" as="geometry" />
        </mxCell>
        <mxCell id="-Frc0PO0LDj_yuW4_diT-28" value="shutdown" style="rounded=0;whiteSpace=wrap;html=1;" vertex="1" parent="1">
          <mxGeometry x="548" y="480" width="90" height="40" as="geometry" />
        </mxCell>
        <mxCell id="-Frc0PO0LDj_yuW4_diT-29" style="edgeStyle=orthogonalEdgeStyle;rounded=0;orthogonalLoop=1;jettySize=auto;html=1;exitX=1;exitY=0.5;exitDx=0;exitDy=0;entryX=0;entryY=0.5;entryDx=0;entryDy=0;" edge="1" parent="1" source="-Frc0PO0LDj_yuW4_diT-30" target="-Frc0PO0LDj_yuW4_diT-23">
          <mxGeometry relative="1" as="geometry" />
        </mxCell>
        <mxCell id="-Frc0PO0LDj_yuW4_diT-30" value="handshake" style="rounded=0;whiteSpace=wrap;html=1;" vertex="1" parent="1">
          <mxGeometry x="355" y="220" width="90" height="40" as="geometry" />
        </mxCell>
        <mxCell id="-Frc0PO0LDj_yuW4_diT-31" style="edgeStyle=orthogonalEdgeStyle;rounded=0;orthogonalLoop=1;jettySize=auto;html=1;exitX=1;exitY=0.5;exitDx=0;exitDy=0;entryX=0;entryY=0.5;entryDx=0;entryDy=0;" edge="1" parent="1" source="-Frc0PO0LDj_yuW4_diT-32" target="-Frc0PO0LDj_yuW4_diT-25">
          <mxGeometry relative="1" as="geometry" />
        </mxCell>
        <mxCell id="-Frc0PO0LDj_yuW4_diT-32" value="transfer data" style="rounded=0;whiteSpace=wrap;html=1;" vertex="1" parent="1">
          <mxGeometry x="355" y="280" width="90" height="40" as="geometry" />
        </mxCell>
        <mxCell id="-Frc0PO0LDj_yuW4_diT-33" style="edgeStyle=orthogonalEdgeStyle;rounded=0;orthogonalLoop=1;jettySize=auto;html=1;exitX=0;exitY=0.5;exitDx=0;exitDy=0;" edge="1" parent="1" source="-Frc0PO0LDj_yuW4_diT-34" target="-Frc0PO0LDj_yuW4_diT-18">
          <mxGeometry relative="1" as="geometry" />
        </mxCell>
        <mxCell id="-Frc0PO0LDj_yuW4_diT-34" value="return solution" style="rounded=0;whiteSpace=wrap;html=1;" vertex="1" parent="1">
          <mxGeometry x="355" y="410" width="90" height="40" as="geometry" />
        </mxCell>
        <mxCell id="-Frc0PO0LDj_yuW4_diT-35" style="edgeStyle=orthogonalEdgeStyle;rounded=0;orthogonalLoop=1;jettySize=auto;html=1;exitX=1;exitY=0.5;exitDx=0;exitDy=0;entryX=0;entryY=0.5;entryDx=0;entryDy=0;" edge="1" parent="1" source="-Frc0PO0LDj_yuW4_diT-36" target="-Frc0PO0LDj_yuW4_diT-28">
          <mxGeometry relative="1" as="geometry" />
        </mxCell>
        <mxCell id="-Frc0PO0LDj_yuW4_diT-36" value="close" style="rounded=0;whiteSpace=wrap;html=1;" vertex="1" parent="1">
          <mxGeometry x="355" y="480" width="90" height="40" as="geometry" />
        </mxCell>
        <mxCell id="-Frc0PO0LDj_yuW4_diT-37" value="loop" style="rounded=0;whiteSpace=wrap;html=1;labelPosition=left;verticalLabelPosition=top;align=right;verticalAlign=bottom;strokeColor=#8F8F8F;fillColor=none;strokeWidth=2;" vertex="1" parent="1">
          <mxGeometry x="90" y="265" width="640" height="205" as="geometry" />
        </mxCell>
        <mxCell id="JHcWRUDyQ1WX2qCNbqaD-1" value="" style="rounded=0;whiteSpace=wrap;html=1;strokeColor=#9673a6;strokeWidth=2;fillColor=#e1d5e7;labelPosition=center;verticalLabelPosition=top;align=center;verticalAlign=bottom;" vertex="1" parent="1">
          <mxGeometry x="784" y="125" width="160" height="420" as="geometry" />
        </mxCell>
        <mxCell id="JHcWRUDyQ1WX2qCNbqaD-2" style="edgeStyle=orthogonalEdgeStyle;rounded=0;orthogonalLoop=1;jettySize=auto;html=1;exitX=0.5;exitY=1;exitDx=0;exitDy=0;entryX=0.5;entryY=0;entryDx=0;entryDy=0;" edge="1" parent="1" source="JHcWRUDyQ1WX2qCNbqaD-3" target="JHcWRUDyQ1WX2qCNbqaD-5">
          <mxGeometry relative="1" as="geometry" />
        </mxCell>
        <mxCell id="JHcWRUDyQ1WX2qCNbqaD-3" value="CP2K" style="rounded=0;whiteSpace=wrap;html=1;strokeWidth=2;" vertex="1" parent="1">
          <mxGeometry x="804" y="145" width="120" height="60" as="geometry" />
        </mxCell>
        <mxCell id="JHcWRUDyQ1WX2qCNbqaD-4" style="edgeStyle=orthogonalEdgeStyle;rounded=0;orthogonalLoop=1;jettySize=auto;html=1;exitX=0.5;exitY=1;exitDx=0;exitDy=0;entryX=0.5;entryY=0;entryDx=0;entryDy=0;" edge="1" parent="1" source="JHcWRUDyQ1WX2qCNbqaD-5" target="JHcWRUDyQ1WX2qCNbqaD-7">
          <mxGeometry relative="1" as="geometry" />
        </mxCell>
        <mxCell id="JHcWRUDyQ1WX2qCNbqaD-5" value="JordanWignerMapper" style="rounded=0;whiteSpace=wrap;html=1;strokeWidth=2;" vertex="1" parent="1">
          <mxGeometry x="804" y="225" width="120" height="60" as="geometry" />
        </mxCell>
        <mxCell id="JHcWRUDyQ1WX2qCNbqaD-6" style="edgeStyle=orthogonalEdgeStyle;rounded=0;orthogonalLoop=1;jettySize=auto;html=1;exitX=0.5;exitY=1;exitDx=0;exitDy=0;entryX=0.5;entryY=0;entryDx=0;entryDy=0;" edge="1" parent="1" source="JHcWRUDyQ1WX2qCNbqaD-7" target="JHcWRUDyQ1WX2qCNbqaD-9">
          <mxGeometry relative="1" as="geometry" />
        </mxCell>
        <mxCell id="JHcWRUDyQ1WX2qCNbqaD-7" value="UCCSD" style="rounded=0;whiteSpace=wrap;html=1;strokeWidth=2;" vertex="1" parent="1">
          <mxGeometry x="804" y="302.5" width="120" height="60" as="geometry" />
        </mxCell>
        <mxCell id="JHcWRUDyQ1WX2qCNbqaD-8" style="edgeStyle=orthogonalEdgeStyle;rounded=0;orthogonalLoop=1;jettySize=auto;html=1;exitX=0.5;exitY=1;exitDx=0;exitDy=0;entryX=0.5;entryY=0;entryDx=0;entryDy=0;" edge="1" parent="1" source="JHcWRUDyQ1WX2qCNbqaD-9" target="JHcWRUDyQ1WX2qCNbqaD-10">
          <mxGeometry relative="1" as="geometry" />
        </mxCell>
        <mxCell id="JHcWRUDyQ1WX2qCNbqaD-9" value="VQE" style="rounded=0;whiteSpace=wrap;html=1;strokeWidth=2;" vertex="1" parent="1">
          <mxGeometry x="804" y="385" width="120" height="60" as="geometry" />
        </mxCell>
        <mxCell id="JHcWRUDyQ1WX2qCNbqaD-10" value="QEOM" style="rounded=0;whiteSpace=wrap;html=1;strokeWidth=2;" vertex="1" parent="1">
          <mxGeometry x="804" y="465" width="120" height="60" as="geometry" />
        </mxCell>
        <mxCell id="1QBXEevK0TODFkroJ5rT-1" value="" style="endArrow=none;dashed=1;html=1;entryX=0;entryY=0;entryDx=0;entryDy=0;exitX=1;exitY=0;exitDx=0;exitDy=0;" edge="1" parent="1" target="JHcWRUDyQ1WX2qCNbqaD-1">
          <mxGeometry width="50" height="50" relative="1" as="geometry">
            <mxPoint x="629" y="350" as="sourcePoint" />
            <mxPoint x="890" y="80" as="targetPoint" />
          </mxGeometry>
        </mxCell>
        <mxCell id="CG42B63NGSs-YOBf1Q_d-1" value="" style="endArrow=none;dashed=1;html=1;exitX=1;exitY=1;exitDx=0;exitDy=0;" edge="1" parent="1">
          <mxGeometry width="50" height="50" relative="1" as="geometry">
            <mxPoint x="629" y="390" as="sourcePoint" />
            <mxPoint x="780" y="540" as="targetPoint" />
          </mxGeometry>
        </mxCell>
      </root>
    </mxGraphModel>
  </diagram>
</mxfile>
